<?xml version="1.0" encoding="UTF-8" standalone="no"?>
<!-- Generator: Adobe Illustrator 17.0.1, SVG Export Plug-In . SVG Version: 6.00 Build 0)  -->

<svg
   xmlns:dc="http://purl.org/dc/elements/1.1/"
   xmlns:cc="http://creativecommons.org/ns#"
   xmlns:rdf="http://www.w3.org/1999/02/22-rdf-syntax-ns#"
   xmlns:svg="http://www.w3.org/2000/svg"
   xmlns="http://www.w3.org/2000/svg"
   xmlns:sodipodi="http://sodipodi.sourceforge.net/DTD/sodipodi-0.dtd"
   xmlns:inkscape="http://www.inkscape.org/namespaces/inkscape"
   version="1.1"
   id="Layer_1"
   x="0px"
   y="0px"
   width="185px"
   height="188px"
   viewBox="0 0 185 188"
   enable-background="new 0 0 185 188"
   xml:space="preserve"
   inkscape:version="0.91 r13725"
   sodipodi:docname="logos.svg"><metadata
     id="metadata235"><rdf:RDF><cc:Work
         rdf:about=""><dc:format>image/svg+xml</dc:format><dc:type
           rdf:resource="http://purl.org/dc/dcmitype/StillImage" /></cc:Work></rdf:RDF></metadata><defs
     id="defs233"><radialGradient
       gradientUnits="userSpaceOnUse"
       gradientTransform="matrix(0.498,0,0,0.498,172.2891,79.7388)"
       r="20.1137"
       cy="-60.055"
       cx="-310.583"
       id="SVGID_1_"><stop
         id="stop52"
         style="stop-color:#FFCF4F"
         offset="0" /><stop
         id="stop54"
         style="stop-color:#F4C236"
         offset="1" /></radialGradient><radialGradient
       gradientUnits="userSpaceOnUse"
       gradientTransform="matrix(0.498,0,0,0.498,172.2891,79.7388)"
       r="27.6582"
       cy="-70.2695"
       cx="-322.6347"
       id="SVGID_2_"><stop
         id="stop59"
         style="stop-color:#08A960"
         offset="0" /><stop
         id="stop61"
         style="stop-color:#07914B"
         offset="1" /></radialGradient><radialGradient
       gradientUnits="userSpaceOnUse"
       gradientTransform="matrix(0.498,0,0,0.498,172.2891,79.7388)"
       r="40.54"
       cy="-109.9511"
       cx="-313.1831"
       id="SVGID_3_"><stop
         id="stop66"
         style="stop-color:#567FC0"
         offset="0" /><stop
         id="stop68"
         style="stop-color:#557FC0"
         offset="1" /></radialGradient><radialGradient
       gradientUnits="userSpaceOnUse"
       gradientTransform="matrix(0.498,0,0,0.498,172.2891,79.7388)"
       r="33.0584"
       cy="-119.9164"
       cx="-301.1191"
       id="SVGID_4_"><stop
         id="stop73"
         style="stop-color:#E14C40"
         offset="0" /><stop
         id="stop75"
         style="stop-color:#CD392D"
         offset="1" /></radialGradient><radialGradient
       gradientUnits="userSpaceOnUse"
       gradientTransform="matrix(0.498,0,0,0.498,172.2891,79.7388)"
       r="20.1137"
       cy="192.9653"
       cx="-310.265"
       id="SVGID_9_"><stop
         id="stop204"
         style="stop-color:#FFCF4F"
         offset="0" /><stop
         id="stop206"
         style="stop-color:#F4C236"
         offset="1" /></radialGradient><radialGradient
       gradientUnits="userSpaceOnUse"
       gradientTransform="matrix(0.498,0,0,0.498,172.2891,79.7388)"
       r="27.6582"
       cy="182.7508"
       cx="-322.3167"
       id="SVGID_10_"><stop
         id="stop211"
         style="stop-color:#08A960"
         offset="0" /><stop
         id="stop213"
         style="stop-color:#07914B"
         offset="1" /></radialGradient><radialGradient
       gradientUnits="userSpaceOnUse"
       gradientTransform="matrix(0.498,0,0,0.498,172.2891,79.7388)"
       r="40.54"
       cy="143.0691"
       cx="-312.8651"
       id="SVGID_11_"><stop
         id="stop218"
         style="stop-color:#567FC0"
         offset="0" /><stop
         id="stop220"
         style="stop-color:#557FC0"
         offset="1" /></radialGradient><radialGradient
       gradientUnits="userSpaceOnUse"
       gradientTransform="matrix(0.498,0,0,0.498,172.2891,79.7388)"
       r="33.0584"
       cy="133.1039"
       cx="-300.8011"
       id="SVGID_12_"><stop
         id="stop225"
         style="stop-color:#E14C40"
         offset="0" /><stop
         id="stop227"
         style="stop-color:#CD392D"
         offset="1" /></radialGradient></defs><sodipodi:namedview
     pagecolor="#ffffff"
     bordercolor="#666666"
     borderopacity="1"
     objecttolerance="10"
     gridtolerance="10"
     guidetolerance="10"
     inkscape:pageopacity="0"
     inkscape:pageshadow="2"
     inkscape:window-width="1920"
     inkscape:window-height="1004"
     id="namedview231"
     showgrid="false"
     inkscape:zoom="3.5505787"
     inkscape:cx="67.001981"
     inkscape:cy="108.53061"
     inkscape:window-x="0"
     inkscape:window-y="24"
     inkscape:window-maximized="1"
     inkscape:current-layer="Layer_1" /><g
     id="g5"><path
       style="fill:#4e4e4e"
       inkscape:connector-curvature="0"
       id="path7"
       d="m 115.912,17.967 c 0,2.676 -0.731,4.738 -2.193,6.186 -1.462,1.448 -3.518,2.171 -6.166,2.171 l -5.148,0 0,-16.034 5.507,0 c 2.554,0 4.526,0.658 5.916,1.974 1.389,1.316 2.084,3.217 2.084,5.703 z m -4.462,0.154 c 0,-1.469 -0.289,-2.559 -0.866,-3.268 -0.577,-0.709 -1.453,-1.064 -2.628,-1.064 l -1.251,0 0,8.982 0.958,0 c 1.306,0 2.264,-0.382 2.874,-1.146 0.61,-0.764 0.913,-1.932 0.913,-3.504 z" /><path
       style="fill:#4e4e4e"
       inkscape:connector-curvature="0"
       id="path9"
       d="m 123.129,26.544 c -2.053,0 -3.646,-0.55 -4.783,-1.65 -1.136,-1.101 -1.704,-2.667 -1.704,-4.7 0,-2.099 0.526,-3.709 1.578,-4.832 1.053,-1.122 2.555,-1.684 4.506,-1.684 1.857,0 3.293,0.488 4.305,1.464 1.012,0.976 1.52,2.382 1.52,4.217 l 0,1.908 -7.609,0 c 0.029,0.695 0.281,1.239 0.758,1.634 0.475,0.395 1.121,0.592 1.941,0.592 0.748,0 1.436,-0.071 2.063,-0.214 0.629,-0.143 1.309,-0.386 2.041,-0.729 l 0,3.082 c -0.668,0.344 -1.357,0.581 -2.068,0.713 -0.712,0.133 -1.56,0.199 -2.548,0.199 z m -0.25,-9.948 c -0.5,0 -0.92,0.159 -1.256,0.477 -0.338,0.318 -0.537,0.817 -0.594,1.497 l 3.656,0 c -0.014,-0.599 -0.184,-1.078 -0.506,-1.437 -0.322,-0.359 -0.755,-0.537 -1.3,-0.537 z" /><path
       style="fill:#4e4e4e"
       inkscape:connector-curvature="0"
       id="path11"
       d="m 132.851,26.325 -4.702,-12.426 4.44,0 2.09,7.348 c 0.008,0.037 0.022,0.099 0.044,0.187 0.022,0.088 0.043,0.192 0.065,0.313 0.021,0.121 0.041,0.249 0.06,0.384 0.018,0.136 0.027,0.262 0.027,0.378 l 0.076,0 c 0,-0.38 0.065,-0.793 0.195,-1.239 l 2.188,-7.37 4.43,0 -4.702,12.426 -4.211,0 z" /><path
       style="fill:#4e4e4e"
       inkscape:connector-curvature="0"
       id="path13"
       d="m 146.381,26.325 -4.234,0 0,-16.035 9.404,0 0,3.477 -5.17,0 0,3.06 4.767,0 0,3.477 -4.767,0 0,6.021 z" /><path
       style="fill:#4e4e4e"
       inkscape:connector-curvature="0"
       id="path15"
       d="m 158.528,26.544 c -2.054,0 -3.647,-0.55 -4.783,-1.65 -1.136,-1.1 -1.703,-2.667 -1.703,-4.7 0,-2.099 0.525,-3.709 1.578,-4.832 1.052,-1.122 2.554,-1.684 4.506,-1.684 1.857,0 3.292,0.488 4.305,1.464 1.012,0.976 1.519,2.382 1.519,4.217 l 0,1.908 -7.608,0 c 0.029,0.695 0.281,1.239 0.757,1.634 0.475,0.395 1.122,0.592 1.942,0.592 0.747,0 1.435,-0.071 2.063,-0.214 0.628,-0.143 1.308,-0.386 2.041,-0.729 l 0,3.082 c -0.668,0.344 -1.357,0.581 -2.068,0.713 -0.713,0.133 -1.561,0.199 -2.549,0.199 z m -0.25,-9.948 c -0.501,0 -0.92,0.159 -1.257,0.477 -0.338,0.318 -0.536,0.817 -0.594,1.497 l 3.657,0 c -0.015,-0.599 -0.184,-1.078 -0.506,-1.437 -0.322,-0.358 -0.756,-0.537 -1.3,-0.537 z" /><path
       style="fill:#4e4e4e"
       inkscape:connector-curvature="0"
       id="path17"
       d="m 174.541,22.508 c 0,1.331 -0.45,2.336 -1.35,3.016 -0.9,0.68 -2.191,1.02 -3.875,1.02 -0.914,0 -1.709,-0.049 -2.384,-0.148 -0.675,-0.099 -1.364,-0.28 -2.067,-0.543 l 0,-3.433 c 0.66,0.292 1.384,0.534 2.171,0.724 0.787,0.19 1.489,0.285 2.106,0.285 0.921,0 1.382,-0.212 1.382,-0.636 0,-0.219 -0.129,-0.415 -0.386,-0.586 -0.258,-0.172 -1.007,-0.506 -2.248,-1.004 -1.132,-0.468 -1.923,-1 -2.373,-1.596 -0.449,-0.596 -0.675,-1.351 -0.675,-2.265 0,-1.155 0.442,-2.055 1.328,-2.698 0.885,-0.644 2.137,-0.965 3.755,-0.965 0.813,0 1.576,0.09 2.291,0.269 0.715,0.179 1.457,0.44 2.227,0.784 l -1.154,2.764 c -0.565,-0.256 -1.164,-0.473 -1.796,-0.652 -0.631,-0.179 -1.146,-0.269 -1.546,-0.269 -0.696,0 -1.044,0.172 -1.044,0.516 0,0.212 0.121,0.393 0.364,0.543 0.243,0.15 0.945,0.455 2.106,0.916 0.863,0.358 1.507,0.709 1.932,1.053 0.425,0.344 0.736,0.748 0.936,1.212 0.2,0.463 0.3,1.028 0.3,1.693 z" /><path
       style="fill:#4e4e4e"
       inkscape:connector-curvature="0"
       id="path19"
       d="m 181.605,23.155 c 0.573,0 1.259,-0.143 2.058,-0.428 l 0,3.126 c -0.573,0.249 -1.119,0.426 -1.639,0.532 -0.519,0.105 -1.126,0.159 -1.822,0.159 -1.43,0 -2.46,-0.353 -3.092,-1.058 -0.631,-0.706 -0.946,-1.79 -0.946,-3.252 l 0,-5.122 -1.491,0 0,-1.744 1.894,-1.349 1.1,-2.61 2.786,0 0,2.49 3.025,0 0,3.213 -3.025,0 0,4.837 c -0.001,0.804 0.384,1.206 1.152,1.206 z" /></g><g
     id="g3612"
     transform="translate(-49.851028,0.28164423)"><path
       style="fill:#4e4e4e"
       inkscape:connector-curvature="0"
       id="path31"
       d="m 107.335,43.779 c 0,1.345 -0.486,2.4 -1.458,3.166 -0.973,0.766 -2.314,1.148 -4.024,1.148 -1.71,0 -3.11,-0.266 -4.2,-0.797 l 0,-2.337 c 0.689,0.324 1.422,0.579 2.198,0.765 0.776,0.187 1.499,0.279 2.167,0.279 0.979,0 1.702,-0.186 2.167,-0.559 0.465,-0.372 0.698,-0.872 0.698,-1.5 0,-0.565 -0.214,-1.044 -0.641,-1.438 -0.428,-0.393 -1.311,-0.859 -2.648,-1.396 -1.379,-0.559 -2.352,-1.197 -2.917,-1.914 -0.565,-0.717 -0.848,-1.579 -0.848,-2.586 0,-1.262 0.448,-2.255 1.345,-2.979 0.897,-0.724 2.1,-1.086 3.61,-1.086 1.448,0 2.89,0.317 4.324,0.952 l -0.786,2.017 c -1.345,-0.565 -2.545,-0.848 -3.6,-0.848 -0.8,0 -1.407,0.174 -1.82,0.522 -0.414,0.348 -0.621,0.809 -0.621,1.381 0,0.393 0.083,0.729 0.248,1.009 0.165,0.28 0.438,0.543 0.817,0.791 0.379,0.249 1.062,0.576 2.048,0.983 1.11,0.462 1.924,0.893 2.441,1.293 0.517,0.4 0.896,0.852 1.138,1.355 0.241,0.503 0.362,1.096 0.362,1.779 z" /><path
       style="fill:#4e4e4e"
       inkscape:connector-curvature="0"
       id="path33"
       d="m 113.729,48.093 c -1.779,0 -3.171,-0.519 -4.174,-1.557 -1.003,-1.038 -1.505,-2.467 -1.505,-4.288 0,-1.869 0.465,-3.338 1.396,-4.407 0.931,-1.069 2.21,-1.604 3.838,-1.604 1.51,0 2.703,0.459 3.579,1.376 0.875,0.917 1.313,2.179 1.313,3.786 l 0,1.313 -7.624,0 c 0.034,1.11 0.334,1.964 0.9,2.561 0.565,0.596 1.362,0.895 2.39,0.895 0.676,0 1.305,-0.063 1.888,-0.191 0.583,-0.127 1.208,-0.339 1.877,-0.636 l 0,1.976 c -0.593,0.283 -1.193,0.483 -1.8,0.6 -0.607,0.117 -1.298,0.176 -2.078,0.176 z m -0.444,-10.014 c -0.772,0 -1.392,0.245 -1.857,0.734 -0.465,0.49 -0.743,1.204 -0.833,2.142 l 5.193,0 c -0.014,-0.945 -0.242,-1.66 -0.683,-2.146 -0.441,-0.486 -1.048,-0.73 -1.82,-0.73 z" /><path
       style="fill:#4e4e4e"
       inkscape:connector-curvature="0"
       id="path35"
       d="m 126.826,47.886 -0.486,-1.593 -0.082,0 c -0.553,0.697 -1.107,1.171 -1.666,1.422 -0.559,0.252 -1.275,0.378 -2.152,0.378 -1.123,0 -2,-0.304 -2.631,-0.911 -0.633,-0.606 -0.947,-1.465 -0.947,-2.576 0,-1.179 0.438,-2.069 1.314,-2.669 0.875,-0.6 2.209,-0.927 4.002,-0.982 l 1.977,-0.062 0,-0.61 c 0,-0.731 -0.172,-1.278 -0.512,-1.64 -0.342,-0.362 -0.871,-0.543 -1.588,-0.543 -0.586,0 -1.148,0.086 -1.688,0.258 -0.537,0.172 -1.055,0.376 -1.551,0.61 l -0.787,-1.738 c 0.621,-0.324 1.301,-0.57 2.039,-0.74 0.738,-0.169 1.434,-0.253 2.09,-0.253 1.455,0 2.553,0.317 3.295,0.952 0.74,0.635 1.111,1.631 1.111,2.99 l 0,7.707 -1.738,0 z m -3.621,-1.656 c 0.883,0 1.592,-0.246 2.127,-0.739 0.533,-0.493 0.801,-1.185 0.801,-2.074 l 0,-0.993 -1.469,0.062 c -1.145,0.042 -1.977,0.233 -2.498,0.574 -0.521,0.341 -0.781,0.864 -0.781,1.567 0,0.51 0.152,0.905 0.455,1.184 0.305,0.28 0.76,0.419 1.365,0.419 z" /><path
       style="fill:#4e4e4e"
       inkscape:connector-curvature="0"
       id="path37"
       d="m 138.372,44.627 c 0,1.117 -0.407,1.974 -1.221,2.57 -0.813,0.597 -1.979,0.895 -3.496,0.895 -1.524,0 -2.749,-0.231 -3.673,-0.693 l 0,-2.1 c 1.345,0.621 2.597,0.931 3.755,0.931 1.497,0 2.245,-0.452 2.245,-1.355 0,-0.29 -0.083,-0.531 -0.248,-0.724 -0.166,-0.193 -0.438,-0.393 -0.817,-0.6 -0.379,-0.207 -0.907,-0.441 -1.583,-0.703 -1.317,-0.51 -2.208,-1.021 -2.674,-1.531 -0.466,-0.51 -0.698,-1.172 -0.698,-1.986 0,-0.979 0.395,-1.74 1.185,-2.281 0.789,-0.541 1.863,-0.812 3.223,-0.812 1.345,0 2.617,0.272 3.816,0.817 l -0.786,1.831 c -1.234,-0.51 -2.272,-0.766 -3.113,-0.766 -1.283,0 -1.924,0.366 -1.924,1.097 0,0.358 0.167,0.662 0.501,0.91 0.335,0.248 1.064,0.59 2.188,1.024 0.944,0.366 1.631,0.7 2.059,1.003 0.427,0.304 0.744,0.654 0.951,1.05 0.207,0.396 0.31,0.872 0.31,1.423 z" /><path
       style="fill:#4e4e4e"
       inkscape:connector-curvature="0"
       id="path39"
       d="m 149.876,42.145 c 0,1.869 -0.479,3.328 -1.438,4.376 -0.959,1.048 -2.293,1.572 -4.004,1.572 -1.068,0 -2.014,-0.242 -2.834,-0.724 -0.821,-0.483 -1.452,-1.176 -1.894,-2.08 -0.441,-0.903 -0.662,-1.951 -0.662,-3.145 0,-1.855 0.477,-3.303 1.428,-4.345 0.952,-1.041 2.293,-1.562 4.024,-1.562 1.655,0 2.965,0.533 3.931,1.598 0.966,1.065 1.449,2.503 1.449,4.31 z m -8.327,0 c 0,2.642 0.976,3.962 2.928,3.962 1.931,0 2.896,-1.32 2.896,-3.962 0,-2.614 -0.973,-3.92 -2.918,-3.92 -1.021,0 -1.76,0.338 -2.219,1.014 -0.458,0.675 -0.687,1.643 -0.687,2.906 z" /><path
       style="fill:#4e4e4e"
       inkscape:connector-curvature="0"
       id="path41"
       d="m 161.463,47.886 -2.441,0 0,-7.034 c 0,-0.883 -0.178,-1.542 -0.532,-1.976 -0.355,-0.435 -0.919,-0.652 -1.691,-0.652 -1.027,0 -1.779,0.304 -2.255,0.91 -0.477,0.607 -0.714,1.624 -0.714,3.052 l 0,5.7 -2.431,0 0,-11.441 1.903,0 0.341,1.5 0.124,0 c 0.345,-0.545 0.835,-0.965 1.469,-1.262 0.635,-0.296 1.338,-0.445 2.11,-0.445 2.745,0 4.117,1.396 4.117,4.189 l 0,7.459 z" /></g><g
     id="g43"><path
       style="fill:#4e4e4e"
       inkscape:connector-curvature="0"
       id="path45"
       d="m 55.571,17.313 6.922,0 0,8.644 c -1.879,0.644 -3.945,0.965 -6.198,0.965 -2.472,0 -4.382,-0.716 -5.731,-2.15 -1.349,-1.433 -2.024,-3.477 -2.024,-6.132 0,-2.589 0.739,-4.603 2.216,-6.044 1.477,-1.44 3.547,-2.161 6.208,-2.161 1.009,0 1.962,0.095 2.858,0.285 0.896,0.19 1.676,0.432 2.342,0.724 l -1.371,3.4 c -1.156,-0.57 -2.424,-0.855 -3.807,-0.855 -1.265,0 -2.243,0.412 -2.934,1.234 -0.691,0.823 -1.037,1.999 -1.037,3.527 0,1.499 0.313,2.642 0.938,3.428 0.625,0.786 1.526,1.179 2.704,1.179 0.644,0 1.236,-0.062 1.777,-0.187 l 0,-2.512 -2.863,0 0,-3.345 z" /><path
       style="fill:#4e4e4e"
       inkscape:connector-curvature="0"
       id="path47"
       d="m 78.026,18.344 c 0,2.676 -0.737,4.739 -2.21,6.187 -1.473,1.448 -3.545,2.172 -6.214,2.172 l -5.188,0 0,-16.037 5.551,0 c 2.574,0 4.561,0.658 5.961,1.975 1.4,1.317 2.1,3.217 2.1,5.703 z m -4.497,0.154 c 0,-1.47 -0.291,-2.56 -0.872,-3.269 -0.582,-0.709 -1.464,-1.064 -2.649,-1.064 l -1.262,0 0,8.983 0.965,0 c 1.316,0 2.282,-0.382 2.896,-1.146 0.614,-0.764 0.922,-1.932 0.922,-3.504 z" /><path
       style="fill:#4e4e4e"
       inkscape:connector-curvature="0"
       id="path49"
       d="m 85.991,17.313 6.922,0 0,8.644 c -1.879,0.644 -3.945,0.965 -6.198,0.965 -2.472,0 -4.382,-0.716 -5.731,-2.15 -1.349,-1.433 -2.024,-3.477 -2.024,-6.132 0,-2.589 0.739,-4.603 2.216,-6.044 1.477,-1.44 3.547,-2.161 6.208,-2.161 1.009,0 1.962,0.095 2.858,0.285 0.896,0.19 1.676,0.432 2.342,0.724 l -1.371,3.4 c -1.156,-0.57 -2.424,-0.855 -3.807,-0.855 -1.265,0 -2.243,0.412 -2.934,1.234 -0.691,0.823 -1.037,1.999 -1.037,3.527 0,1.499 0.313,2.642 0.938,3.428 0.625,0.786 1.526,1.179 2.704,1.179 0.644,0 1.236,-0.062 1.777,-0.187 l 0,-2.512 -2.863,0 0,-3.345 z" /></g><path
     inkscape:connector-curvature="0"
     style="fill:url(#SVGID_1_)"
     id="path56"
     d="m 8.91,61 6.791,0 c 1.607,0 3.604,-1.128 4.432,-2.511 l 5.72,-9.519 c 0.677,-1.396 0.653,-3.426 -0.119,-4.713 L 22.356,38.665 8.91,61 Z" /><path
     inkscape:connector-curvature="0"
     style="fill:url(#SVGID_2_)"
     id="path63"
     d="M 16.209,33.514 1.108,58.763 C 0.524,60.011 1.131,61 2.629,61 L 8.91,61 22.356,38.665 16.21,28.492 c 0.829,1.378 0.829,3.638 -0.001,5.022" /><path
     inkscape:connector-curvature="0"
     style="fill:url(#SVGID_3_)"
     id="path70"
     d="M 2.629,1 C 1.015,1 0.375,2.133 1.205,3.511 l 24.529,40.745 c 0.772,1.288 0.795,3.317 0.119,4.713 L 31.816,39.044 8.914,1 2.629,1 Z" /><path
     inkscape:connector-curvature="0"
     style="fill:url(#SVGID_4_)"
     id="path77"
     d="m 8.914,1 22.903,38.045 3.321,-5.53 c 0.83,-1.385 0.83,-3.645 0,-5.023 L 20.133,3.511 C 19.305,2.133 17.308,1 15.701,1 L 8.914,1 Z" /><g
     id="g79"><g
       id="g81"><path
         fill="#4E4E4E"
         d="M115.912,80.967c0,2.677-0.731,4.738-2.193,6.187c-1.462,1.447-3.518,2.171-6.166,2.171h-5.148V73.29    h5.507c2.554,0,4.526,0.657,5.916,1.974S115.912,78.481,115.912,80.967z M111.45,81.12c0-1.469-0.289-2.559-0.866-3.268    c-0.577-0.71-1.453-1.064-2.628-1.064h-1.251v8.982h0.958c1.306,0,2.264-0.382,2.874-1.146    C111.145,83.86,111.45,82.692,111.45,81.12z"
         id="path83" /><path
         fill="#4E4E4E"
         d="M123.129,89.544c-2.053,0-3.646-0.55-4.783-1.65c-1.136-1.101-1.704-2.667-1.704-4.7    c0-2.099,0.526-3.709,1.578-4.831c1.053-1.122,2.555-1.684,4.506-1.684c1.857,0,3.293,0.488,4.305,1.464    c1.012,0.977,1.52,2.382,1.52,4.218v1.908h-7.609c0.029,0.694,0.281,1.239,0.758,1.634c0.475,0.396,1.121,0.593,1.941,0.593    c0.748,0,1.436-0.071,2.063-0.214c0.629-0.143,1.309-0.386,2.041-0.729v3.082c-0.668,0.344-1.357,0.581-2.068,0.713    C124.965,89.478,124.117,89.544,123.129,89.544z M122.879,79.596c-0.5,0-0.92,0.159-1.256,0.478    c-0.338,0.318-0.537,0.817-0.594,1.497h3.656c-0.014-0.6-0.184-1.078-0.506-1.437S123.424,79.596,122.879,79.596z"
         id="path85" /><path
         fill="#4E4E4E"
         d="M132.851,89.324l-4.702-12.426h4.44l2.09,7.348c0.008,0.037,0.022,0.099,0.044,0.187    s0.043,0.192,0.065,0.313c0.021,0.121,0.041,0.249,0.06,0.384c0.018,0.136,0.027,0.262,0.027,0.379h0.076    c0-0.38,0.065-0.793,0.195-1.239l2.188-7.37h4.43l-4.702,12.426H132.851z"
         id="path87" /><path
         fill="#4E4E4E"
         d="M146.381,89.324h-4.234V73.29h9.404v3.477h-5.17v3.06h4.767v3.477h-4.767V89.324z"
         id="path89" /><path
         fill="#4E4E4E"
         d="M158.528,89.544c-2.054,0-3.647-0.55-4.783-1.65s-1.703-2.667-1.703-4.7c0-2.099,0.525-3.709,1.578-4.831    c1.052-1.122,2.554-1.684,4.506-1.684c1.857,0,3.292,0.488,4.305,1.464c1.012,0.977,1.519,2.382,1.519,4.218v1.908h-7.608    c0.029,0.694,0.281,1.239,0.757,1.634c0.475,0.396,1.122,0.593,1.942,0.593c0.747,0,1.435-0.071,2.063-0.214    s1.308-0.386,2.041-0.729v3.082c-0.668,0.344-1.357,0.581-2.068,0.713C160.364,89.478,159.516,89.544,158.528,89.544z     M158.278,79.596c-0.501,0-0.92,0.159-1.257,0.478c-0.338,0.318-0.536,0.817-0.594,1.497h3.657    c-0.015-0.6-0.184-1.078-0.506-1.437C159.256,79.775,158.822,79.596,158.278,79.596z"
         id="path91" /><path
         fill="#4E4E4E"
         d="M174.541,85.508c0,1.331-0.45,2.336-1.35,3.016c-0.9,0.681-2.191,1.021-3.875,1.021    c-0.914,0-1.709-0.05-2.384-0.148s-1.364-0.279-2.067-0.543V85.42c0.66,0.293,1.384,0.534,2.171,0.724    c0.787,0.19,1.489,0.285,2.106,0.285c0.921,0,1.382-0.212,1.382-0.636c0-0.22-0.129-0.415-0.386-0.587    c-0.258-0.172-1.007-0.506-2.248-1.004c-1.132-0.468-1.923-0.999-2.373-1.596c-0.449-0.596-0.675-1.351-0.675-2.265    c0-1.155,0.442-2.055,1.328-2.698c0.885-0.644,2.137-0.965,3.755-0.965c0.813,0,1.576,0.09,2.291,0.269    c0.715,0.18,1.457,0.44,2.227,0.784l-1.154,2.764c-0.565-0.256-1.164-0.473-1.796-0.652c-0.631-0.179-1.146-0.269-1.546-0.269    c-0.696,0-1.044,0.172-1.044,0.516c0,0.212,0.121,0.393,0.364,0.543c0.243,0.149,0.945,0.455,2.106,0.915    c0.863,0.358,1.507,0.71,1.932,1.054s0.736,0.747,0.936,1.212C174.441,84.277,174.541,84.843,174.541,85.508z"
         id="path93" /><path
         fill="#4E4E4E"
         d="M181.605,86.154c0.573,0,1.259-0.143,2.058-0.428v3.126c-0.573,0.249-1.119,0.427-1.639,0.532    c-0.519,0.105-1.126,0.159-1.822,0.159c-1.43,0-2.46-0.353-3.092-1.059c-0.631-0.705-0.946-1.789-0.946-3.252v-5.122h-1.491    v-1.743l1.894-1.35l1.1-2.61h2.786v2.49h3.025v3.213h-3.025v4.837C180.452,85.753,180.837,86.154,181.605,86.154z"
         id="path95" /></g><g
       id="g3630"
       transform="translate(-50.132672,0)"><path
         d="m 107.335,106.779 c 0,1.345 -0.486,2.399 -1.458,3.165 -0.973,0.766 -2.314,1.148 -4.024,1.148 -1.71,0 -3.11,-0.266 -4.2,-0.797 l 0,-2.338 c 0.689,0.324 1.422,0.579 2.198,0.766 0.776,0.187 1.499,0.279 2.167,0.279 0.979,0 1.702,-0.187 2.167,-0.559 0.465,-0.372 0.698,-0.872 0.698,-1.5 0,-0.565 -0.214,-1.045 -0.641,-1.438 -0.428,-0.394 -1.311,-0.858 -2.648,-1.396 -1.379,-0.559 -2.352,-1.196 -2.917,-1.914 -0.565,-0.717 -0.848,-1.579 -0.848,-2.586 0,-1.262 0.448,-2.255 1.345,-2.979 0.896,-0.724 2.1,-1.086 3.61,-1.086 1.448,0 2.89,0.317 4.324,0.952 l -0.786,2.017 c -1.345,-0.565 -2.545,-0.848 -3.6,-0.848 -0.8,0 -1.407,0.174 -1.82,0.521 -0.414,0.349 -0.621,0.81 -0.621,1.382 0,0.393 0.083,0.729 0.248,1.008 0.165,0.279 0.438,0.543 0.817,0.792 0.379,0.248 1.062,0.575 2.048,0.982 1.11,0.462 1.924,0.894 2.441,1.293 0.517,0.4 0.896,0.852 1.138,1.355 0.241,0.505 0.362,1.099 0.362,1.781 z"
         id="path107"
         inkscape:connector-curvature="0"
         style="fill:#4e4e4e" /><path
         d="m 113.729,111.093 c -1.779,0 -3.171,-0.519 -4.174,-1.557 -1.003,-1.038 -1.505,-2.468 -1.505,-4.288 0,-1.869 0.465,-3.338 1.396,-4.407 0.931,-1.068 2.21,-1.603 3.838,-1.603 1.51,0 2.703,0.458 3.579,1.375 0.875,0.918 1.313,2.18 1.313,3.786 l 0,1.314 -7.624,0 c 0.034,1.11 0.334,1.964 0.9,2.56 0.565,0.597 1.362,0.896 2.39,0.896 0.676,0 1.305,-0.064 1.888,-0.191 0.583,-0.128 1.208,-0.34 1.877,-0.637 l 0,1.976 c -0.593,0.283 -1.193,0.483 -1.8,0.601 -0.607,0.118 -1.298,0.175 -2.078,0.175 z m -0.444,-10.014 c -0.772,0 -1.392,0.245 -1.857,0.734 -0.465,0.49 -0.743,1.204 -0.833,2.142 l 5.193,0 c -0.014,-0.945 -0.242,-1.66 -0.683,-2.146 -0.441,-0.486 -1.048,-0.73 -1.82,-0.73 z"
         id="path109"
         inkscape:connector-curvature="0"
         style="fill:#4e4e4e" /><path
         d="m 126.826,110.886 -0.486,-1.593 -0.082,0 c -0.553,0.696 -1.107,1.171 -1.666,1.422 -0.559,0.252 -1.275,0.378 -2.152,0.378 -1.123,0 -2,-0.304 -2.631,-0.91 -0.633,-0.607 -0.947,-1.466 -0.947,-2.576 0,-1.179 0.438,-2.068 1.314,-2.669 0.875,-0.6 2.209,-0.928 4.002,-0.982 l 1.977,-0.063 0,-0.61 c 0,-0.73 -0.172,-1.277 -0.512,-1.64 -0.342,-0.361 -0.871,-0.543 -1.588,-0.543 -0.586,0 -1.148,0.087 -1.688,0.259 -0.537,0.173 -1.055,0.376 -1.551,0.61 l -0.787,-1.737 c 0.621,-0.324 1.301,-0.571 2.039,-0.74 0.738,-0.169 1.434,-0.253 2.09,-0.253 1.455,0 2.553,0.317 3.295,0.951 0.74,0.635 1.111,1.631 1.111,2.989 l 0,7.707 -1.738,0 z m -3.621,-1.656 c 0.883,0 1.592,-0.246 2.127,-0.739 0.533,-0.493 0.801,-1.185 0.801,-2.074 l 0,-0.993 -1.469,0.063 c -1.145,0.041 -1.977,0.232 -2.498,0.574 -0.521,0.341 -0.781,0.863 -0.781,1.566 0,0.511 0.152,0.905 0.455,1.185 0.305,0.279 0.76,0.418 1.365,0.418 z"
         id="path111"
         inkscape:connector-curvature="0"
         style="fill:#4e4e4e" /><path
         d="m 138.372,107.627 c 0,1.117 -0.407,1.975 -1.221,2.571 -0.813,0.596 -1.979,0.895 -3.496,0.895 -1.524,0 -2.749,-0.231 -3.673,-0.693 l 0,-2.1 c 1.345,0.62 2.597,0.931 3.755,0.931 1.497,0 2.245,-0.451 2.245,-1.354 0,-0.29 -0.083,-0.531 -0.248,-0.725 -0.166,-0.193 -0.438,-0.393 -0.817,-0.6 -0.379,-0.207 -0.907,-0.441 -1.583,-0.704 -1.317,-0.51 -2.208,-1.021 -2.674,-1.53 -0.466,-0.511 -0.698,-1.173 -0.698,-1.986 0,-0.979 0.395,-1.739 1.185,-2.281 0.789,-0.541 1.863,-0.812 3.223,-0.812 1.345,0 2.617,0.272 3.816,0.816 l -0.786,1.831 c -1.234,-0.51 -2.272,-0.766 -3.113,-0.766 -1.283,0 -1.924,0.366 -1.924,1.097 0,0.359 0.167,0.662 0.501,0.91 0.335,0.249 1.064,0.59 2.188,1.024 0.944,0.366 1.631,0.7 2.059,1.004 0.427,0.303 0.744,0.653 0.951,1.05 0.207,0.397 0.31,0.87 0.31,1.422 z"
         id="path113"
         inkscape:connector-curvature="0"
         style="fill:#4e4e4e" /><path
         d="m 149.876,105.145 c 0,1.869 -0.479,3.327 -1.438,4.376 -0.959,1.048 -2.293,1.572 -4.004,1.572 -1.068,0 -2.014,-0.241 -2.834,-0.725 -0.821,-0.482 -1.452,-1.176 -1.894,-2.079 -0.442,-0.903 -0.662,-1.951 -0.662,-3.145 0,-1.855 0.477,-3.303 1.428,-4.345 0.952,-1.041 2.293,-1.562 4.024,-1.562 1.655,0 2.965,0.532 3.931,1.598 0.966,1.066 1.449,2.503 1.449,4.31 z m -8.327,0 c 0,2.642 0.976,3.962 2.928,3.962 1.931,0 2.896,-1.32 2.896,-3.962 0,-2.613 -0.973,-3.921 -2.918,-3.921 -1.021,0 -1.76,0.339 -2.219,1.015 -0.458,0.675 -0.687,1.644 -0.687,2.906 z"
         id="path115"
         inkscape:connector-curvature="0"
         style="fill:#4e4e4e" /><path
         d="m 161.463,110.886 -2.441,0 0,-7.034 c 0,-0.883 -0.178,-1.541 -0.532,-1.976 -0.355,-0.435 -0.919,-0.652 -1.691,-0.652 -1.027,0 -1.779,0.304 -2.255,0.911 -0.477,0.606 -0.714,1.624 -0.714,3.051 l 0,5.7 -2.431,0 0,-11.442 1.903,0 0.341,1.5 0.124,0 c 0.345,-0.544 0.835,-0.965 1.469,-1.262 0.635,-0.296 1.338,-0.444 2.11,-0.444 2.745,0 4.117,1.396 4.117,4.189 l 0,7.459 z"
         id="path117"
         inkscape:connector-curvature="0"
         style="fill:#4e4e4e" /></g><g
       id="g119"><path
         fill="#4E4E4E"
         d="M55.571,80.313h6.922v8.644c-1.879,0.644-3.945,0.966-6.198,0.966c-2.472,0-4.382-0.717-5.731-2.15    c-1.349-1.433-2.024-3.477-2.024-6.132c0-2.589,0.739-4.603,2.216-6.044c1.477-1.44,3.547-2.161,6.208-2.161    c1.009,0,1.962,0.096,2.858,0.285c0.896,0.19,1.676,0.432,2.342,0.725l-1.371,3.4c-1.156-0.57-2.424-0.855-3.807-0.855    c-1.265,0-2.243,0.411-2.934,1.233c-0.691,0.823-1.037,1.999-1.037,3.527c0,1.499,0.313,2.642,0.938,3.428    c0.625,0.786,1.526,1.179,2.704,1.179c0.644,0,1.236-0.062,1.777-0.187v-2.512h-2.863V80.313z"
         id="path121" /><path
         fill="#4E4E4E"
         d="M78.026,81.344c0,2.677-0.737,4.739-2.21,6.187c-1.474,1.448-3.545,2.172-6.214,2.172h-5.188V73.665h5.551    c2.574,0,4.561,0.658,5.961,1.975S78.026,78.857,78.026,81.344z M73.529,81.497c0-1.47-0.291-2.56-0.872-3.269    s-1.464-1.063-2.649-1.063h-1.262v8.983h0.965c1.316,0,2.282-0.382,2.896-1.146C73.222,84.238,73.529,83.069,73.529,81.497z"
         id="path123" /><path
         fill="#4E4E4E"
         d="M85.991,80.313h6.922v8.644c-1.879,0.644-3.945,0.966-6.198,0.966c-2.472,0-4.382-0.717-5.731-2.15    c-1.349-1.433-2.024-3.477-2.024-6.132c0-2.589,0.739-4.603,2.216-6.044c1.477-1.44,3.547-2.161,6.208-2.161    c1.009,0,1.962,0.096,2.858,0.285c0.896,0.19,1.676,0.432,2.342,0.725l-1.371,3.4c-1.156-0.57-2.424-0.855-3.807-0.855    c-1.265,0-2.243,0.411-2.934,1.233c-0.691,0.823-1.037,1.999-1.037,3.527c0,1.499,0.313,2.642,0.938,3.428    c0.625,0.786,1.526,1.179,2.704,1.179c0.644,0,1.236-0.062,1.777-0.187v-2.512h-2.863V80.313z"
         id="path125" /></g><radialGradient
       id="SVGID_5_"
       cx="-310.583"
       cy="66.4552"
       r="20.1137"
       gradientTransform="matrix(0.498 0 0 0.498 172.2891 79.7388)"
       gradientUnits="userSpaceOnUse"><stop
         offset="0"
         style="stop-color:#CCCCCC"
         id="stop128" /><stop
         offset="1"
         style="stop-color:#C0C0C0"
         id="stop130" /></radialGradient><path
       fill="url(#SVGID_5_)"
       d="M8.91,124h6.791c1.607,0,3.604-1.128,4.432-2.511l5.72-9.519c0.677-1.396,0.653-3.426-0.119-4.713   l-3.378-5.592L8.91,124z"
       id="path132" /><radialGradient
       id="SVGID_6_"
       cx="-322.6347"
       cy="56.2407"
       r="27.6582"
       gradientTransform="matrix(0.498 0 0 0.498 172.2891 79.7388)"
       gradientUnits="userSpaceOnUse"><stop
         offset="0"
         style="stop-color:#A0A0A0"
         id="stop135" /><stop
         offset="1"
         style="stop-color:#7B7B7B"
         id="stop137" /></radialGradient><path
       fill="url(#SVGID_6_)"
       d="M16.209,96.514L1.108,121.763C0.524,123.011,1.131,124,2.629,124H8.91l13.446-22.335l-6.146-10.173   C17.039,92.87,17.039,95.13,16.209,96.514"
       id="path139" /><radialGradient
       id="SVGID_7_"
       cx="-313.1831"
       cy="16.559"
       r="40.54"
       gradientTransform="matrix(0.498 0 0 0.498 172.2891 79.7388)"
       gradientUnits="userSpaceOnUse"><stop
         offset="0"
         style="stop-color:#848484"
         id="stop142" /><stop
         offset="1"
         style="stop-color:#838383"
         id="stop144" /></radialGradient><path
       fill="url(#SVGID_7_)"
       d="M2.629,64c-1.613,0-2.254,1.133-1.424,2.511l24.529,40.745c0.772,1.288,0.795,3.317,0.119,4.713   l5.963-9.925L8.914,64H2.629z"
       id="path146" /><radialGradient
       id="SVGID_8_"
       cx="-301.1191"
       cy="6.5938"
       r="33.0584"
       gradientTransform="matrix(0.498 0 0 0.498 172.2891 79.7388)"
       gradientUnits="userSpaceOnUse"><stop
         offset="0"
         style="stop-color:#626262"
         id="stop149" /><stop
         offset="1"
         style="stop-color:#474747"
         id="stop151" /></radialGradient><path
       fill="url(#SVGID_8_)"
       d="M8.914,64l22.903,38.045l3.321-5.53c0.83-1.385,0.83-3.645,0-5.023l-15.004-24.98   C19.305,65.133,17.308,64,15.701,64H8.914z"
       id="path153" /></g><g
     id="g157"><path
       style="fill:#e6e6e5"
       inkscape:connector-curvature="0"
       id="path159"
       d="m 116.071,143.967 c 0,2.676 -0.731,4.738 -2.193,6.186 -1.462,1.448 -3.518,2.172 -6.166,2.172 l -5.148,0 0,-16.035 5.507,0 c 2.554,0 4.526,0.658 5.916,1.975 1.39,1.317 2.084,3.215 2.084,5.702 z m -4.463,0.153 c 0,-1.47 -0.289,-2.559 -0.866,-3.269 -0.577,-0.709 -1.453,-1.063 -2.628,-1.063 l -1.251,0 0,8.982 0.958,0 c 1.306,0 2.264,-0.382 2.874,-1.146 0.608,-0.764 0.913,-1.932 0.913,-3.504 z" /><path
       style="fill:#e6e6e5"
       inkscape:connector-curvature="0"
       id="path161"
       d="m 123.287,152.544 c -2.053,0 -3.646,-0.551 -4.782,-1.651 -1.136,-1.1 -1.704,-2.667 -1.704,-4.699 0,-2.099 0.526,-3.709 1.578,-4.831 1.052,-1.123 2.554,-1.684 4.505,-1.684 1.857,0 3.293,0.487 4.305,1.464 1.012,0.977 1.52,2.382 1.52,4.217 l 0,1.909 -7.609,0 c 0.029,0.694 0.281,1.239 0.758,1.634 0.475,0.395 1.121,0.592 1.941,0.592 0.748,0 1.436,-0.071 2.063,-0.214 0.629,-0.143 1.309,-0.385 2.041,-0.729 l 0,3.081 c -0.668,0.344 -1.357,0.582 -2.068,0.713 -0.712,0.132 -1.56,0.198 -2.548,0.198 z m -0.25,-9.948 c -0.5,0 -0.92,0.159 -1.256,0.478 -0.338,0.317 -0.537,0.816 -0.594,1.497 l 3.656,0 c -0.014,-0.6 -0.184,-1.079 -0.506,-1.438 -0.321,-0.358 -0.755,-0.537 -1.3,-0.537 z" /><path
       style="fill:#e6e6e5"
       inkscape:connector-curvature="0"
       id="path163"
       d="m 133.009,152.324 -4.702,-12.427 4.44,0 2.09,7.349 c 0.008,0.037 0.022,0.099 0.044,0.187 0.022,0.088 0.043,0.192 0.065,0.313 0.021,0.121 0.041,0.249 0.06,0.384 0.018,0.136 0.027,0.262 0.027,0.379 l 0.076,0 c 0,-0.381 0.065,-0.794 0.195,-1.239 l 2.188,-7.371 4.43,0 -4.702,12.427 -4.211,0 z" /><path
       style="fill:#e6e6e5"
       inkscape:connector-curvature="0"
       id="path165"
       d="m 146.539,152.324 -4.234,0 0,-16.035 9.404,0 0,3.478 -5.17,0 0,3.06 4.767,0 0,3.477 -4.767,0 0,6.02 z" /><path
       style="fill:#e6e6e5"
       inkscape:connector-curvature="0"
       id="path167"
       d="m 158.687,152.544 c -2.054,0 -3.647,-0.551 -4.783,-1.651 -1.136,-1.1 -1.703,-2.667 -1.703,-4.699 0,-2.099 0.525,-3.709 1.578,-4.831 1.052,-1.123 2.554,-1.684 4.506,-1.684 1.857,0 3.292,0.487 4.305,1.464 1.012,0.977 1.519,2.382 1.519,4.217 l 0,1.909 -7.608,0 c 0.029,0.694 0.281,1.239 0.757,1.634 0.475,0.395 1.122,0.592 1.942,0.592 0.747,0 1.435,-0.071 2.063,-0.214 0.628,-0.143 1.308,-0.385 2.041,-0.729 l 0,3.081 c -0.668,0.344 -1.357,0.582 -2.068,0.713 -0.714,0.132 -1.562,0.198 -2.549,0.198 z m -0.25,-9.948 c -0.501,0 -0.92,0.159 -1.257,0.478 -0.338,0.317 -0.536,0.816 -0.594,1.497 l 3.657,0 c -0.015,-0.6 -0.184,-1.079 -0.506,-1.438 -0.323,-0.358 -0.757,-0.537 -1.3,-0.537 z" /><path
       style="fill:#e6e6e5"
       inkscape:connector-curvature="0"
       id="path169"
       d="m 174.699,148.508 c 0,1.33 -0.45,2.336 -1.35,3.016 -0.9,0.68 -2.191,1.021 -3.875,1.021 -0.914,0 -1.709,-0.05 -2.384,-0.148 -0.675,-0.098 -1.364,-0.279 -2.067,-0.543 l 0,-3.433 c 0.66,0.292 1.384,0.533 2.171,0.724 0.787,0.191 1.489,0.285 2.106,0.285 0.921,0 1.382,-0.212 1.382,-0.636 0,-0.22 -0.129,-0.415 -0.386,-0.587 -0.258,-0.172 -1.007,-0.507 -2.248,-1.004 -1.132,-0.468 -1.923,-1 -2.373,-1.596 -0.449,-0.596 -0.675,-1.351 -0.675,-2.265 0,-1.155 0.442,-2.055 1.328,-2.698 0.885,-0.644 2.137,-0.965 3.755,-0.965 0.813,0 1.576,0.089 2.291,0.269 0.715,0.179 1.457,0.44 2.227,0.784 l -1.154,2.764 c -0.565,-0.256 -1.164,-0.474 -1.796,-0.652 -0.631,-0.18 -1.146,-0.269 -1.546,-0.269 -0.696,0 -1.044,0.172 -1.044,0.516 0,0.212 0.121,0.393 0.364,0.542 0.243,0.15 0.945,0.456 2.106,0.916 0.863,0.358 1.507,0.71 1.932,1.053 0.425,0.344 0.736,0.748 0.936,1.212 0.201,0.463 0.3,1.028 0.3,1.694 z" /><path
       style="fill:#e6e6e5"
       inkscape:connector-curvature="0"
       id="path171"
       d="m 181.764,149.154 c 0.573,0 1.259,-0.143 2.058,-0.428 l 0,3.126 c -0.573,0.249 -1.119,0.426 -1.639,0.532 -0.519,0.105 -1.126,0.159 -1.822,0.159 -1.43,0 -2.46,-0.354 -3.092,-1.059 -0.631,-0.706 -0.946,-1.79 -0.946,-3.252 l 0,-5.122 -1.491,0 0,-1.744 1.894,-1.349 1.1,-2.61 2.786,0 0,2.489 3.025,0 0,3.214 -3.025,0 0,4.837 c -0.002,0.806 0.383,1.207 1.152,1.207 z" /></g><g
     id="g3687"
     transform="translate(-50.132672,0.28164423)"><path
       style="fill:#e6e6e5"
       inkscape:connector-curvature="0"
       id="path183"
       d="m 107.494,169.779 c 0,1.345 -0.486,2.399 -1.458,3.165 -0.973,0.766 -2.314,1.148 -4.024,1.148 -1.71,0 -3.11,-0.266 -4.2,-0.797 l 0,-2.338 c 0.689,0.324 1.422,0.579 2.198,0.766 0.776,0.187 1.499,0.279 2.167,0.279 0.979,0 1.702,-0.187 2.167,-0.559 0.465,-0.372 0.698,-0.872 0.698,-1.5 0,-0.565 -0.214,-1.045 -0.641,-1.438 -0.428,-0.394 -1.311,-0.858 -2.648,-1.396 -1.379,-0.559 -2.352,-1.196 -2.917,-1.914 -0.565,-0.717 -0.848,-1.579 -0.848,-2.586 0,-1.262 0.448,-2.255 1.345,-2.979 0.896,-0.724 2.1,-1.086 3.61,-1.086 1.448,0 2.89,0.317 4.324,0.952 l -0.786,2.017 c -1.345,-0.565 -2.545,-0.848 -3.6,-0.848 -0.8,0 -1.407,0.174 -1.82,0.521 -0.414,0.349 -0.621,0.81 -0.621,1.382 0,0.393 0.083,0.729 0.248,1.008 0.165,0.279 0.438,0.543 0.817,0.792 0.379,0.248 1.062,0.575 2.048,0.982 1.11,0.462 1.924,0.894 2.441,1.293 0.517,0.4 0.896,0.852 1.138,1.355 0.241,0.505 0.362,1.099 0.362,1.781 z" /><path
       style="fill:#e6e6e5"
       inkscape:connector-curvature="0"
       id="path185"
       d="m 113.888,174.093 c -1.779,0 -3.171,-0.519 -4.174,-1.557 -1.003,-1.038 -1.505,-2.468 -1.505,-4.288 0,-1.869 0.465,-3.338 1.396,-4.407 0.931,-1.068 2.21,-1.603 3.838,-1.603 1.51,0 2.703,0.458 3.579,1.375 0.875,0.918 1.313,2.18 1.313,3.786 l 0,1.314 -7.624,0 c 0.034,1.11 0.334,1.964 0.9,2.56 0.565,0.597 1.362,0.896 2.39,0.896 0.676,0 1.305,-0.064 1.888,-0.191 0.583,-0.128 1.208,-0.34 1.877,-0.637 l 0,1.976 c -0.593,0.283 -1.193,0.483 -1.8,0.601 -0.607,0.118 -1.299,0.175 -2.078,0.175 z m -0.445,-10.014 c -0.772,0 -1.392,0.245 -1.857,0.734 -0.465,0.49 -0.743,1.204 -0.833,2.142 l 5.193,0 c -0.014,-0.945 -0.242,-1.66 -0.683,-2.146 -0.441,-0.486 -1.048,-0.73 -1.82,-0.73 z" /><path
       style="fill:#e6e6e5"
       inkscape:connector-curvature="0"
       id="path187"
       d="m 126.984,173.886 -0.486,-1.593 -0.082,0 c -0.553,0.696 -1.107,1.171 -1.666,1.422 -0.559,0.252 -1.275,0.378 -2.152,0.378 -1.123,0 -2,-0.304 -2.631,-0.91 -0.633,-0.607 -0.947,-1.466 -0.947,-2.576 0,-1.179 0.438,-2.068 1.314,-2.669 0.875,-0.6 2.209,-0.928 4.002,-0.982 l 1.977,-0.063 0,-0.61 c 0,-0.73 -0.172,-1.277 -0.512,-1.64 -0.342,-0.361 -0.871,-0.543 -1.588,-0.543 -0.586,0 -1.148,0.087 -1.688,0.259 -0.537,0.173 -1.055,0.376 -1.551,0.61 l -0.787,-1.737 c 0.621,-0.324 1.301,-0.571 2.039,-0.74 0.738,-0.169 1.434,-0.253 2.09,-0.253 1.455,0 2.553,0.317 3.295,0.951 0.74,0.635 1.111,1.631 1.111,2.989 l 0,7.707 -1.738,0 z m -3.621,-1.656 c 0.883,0 1.592,-0.246 2.127,-0.739 0.533,-0.493 0.801,-1.185 0.801,-2.074 l 0,-0.993 -1.469,0.063 c -1.145,0.041 -1.977,0.232 -2.498,0.574 -0.521,0.341 -0.781,0.863 -0.781,1.566 0,0.511 0.152,0.905 0.455,1.185 0.305,0.279 0.76,0.418 1.365,0.418 z" /><path
       style="fill:#e6e6e5"
       inkscape:connector-curvature="0"
       id="path189"
       d="m 138.53,170.627 c 0,1.117 -0.407,1.975 -1.221,2.571 -0.813,0.596 -1.979,0.895 -3.496,0.895 -1.524,0 -2.749,-0.231 -3.673,-0.693 l 0,-2.1 c 1.345,0.62 2.597,0.931 3.755,0.931 1.497,0 2.245,-0.451 2.245,-1.354 0,-0.29 -0.083,-0.531 -0.248,-0.725 -0.166,-0.193 -0.438,-0.393 -0.817,-0.6 -0.379,-0.207 -0.907,-0.441 -1.583,-0.704 -1.317,-0.51 -2.208,-1.021 -2.674,-1.53 -0.466,-0.511 -0.698,-1.173 -0.698,-1.986 0,-0.979 0.395,-1.739 1.185,-2.281 0.789,-0.541 1.863,-0.812 3.223,-0.812 1.345,0 2.617,0.272 3.816,0.816 l -0.786,1.831 c -1.234,-0.51 -2.272,-0.766 -3.113,-0.766 -1.283,0 -1.924,0.366 -1.924,1.097 0,0.359 0.167,0.662 0.501,0.91 0.335,0.249 1.064,0.59 2.188,1.024 0.944,0.366 1.631,0.7 2.059,1.004 0.427,0.303 0.744,0.653 0.951,1.05 0.207,0.397 0.31,0.87 0.31,1.422 z" /><path
       style="fill:#e6e6e5"
       inkscape:connector-curvature="0"
       id="path191"
       d="m 150.034,168.145 c 0,1.869 -0.479,3.327 -1.438,4.376 -0.959,1.048 -2.293,1.572 -4.004,1.572 -1.068,0 -2.014,-0.241 -2.834,-0.725 -0.821,-0.482 -1.452,-1.176 -1.894,-2.079 -0.442,-0.903 -0.662,-1.951 -0.662,-3.145 0,-1.855 0.477,-3.303 1.428,-4.345 0.952,-1.041 2.293,-1.562 4.024,-1.562 1.655,0 2.965,0.532 3.931,1.598 0.966,1.066 1.449,2.503 1.449,4.31 z m -8.327,0 c 0,2.642 0.976,3.962 2.928,3.962 1.931,0 2.896,-1.32 2.896,-3.962 0,-2.613 -0.973,-3.921 -2.918,-3.921 -1.021,0 -1.76,0.339 -2.219,1.015 -0.457,0.675 -0.687,1.644 -0.687,2.906 z" /><path
       style="fill:#e6e6e5"
       inkscape:connector-curvature="0"
       id="path193"
       d="m 161.621,173.886 -2.441,0 0,-7.034 c 0,-0.883 -0.178,-1.541 -0.532,-1.976 -0.355,-0.435 -0.919,-0.652 -1.691,-0.652 -1.027,0 -1.779,0.304 -2.255,0.911 -0.477,0.606 -0.714,1.624 -0.714,3.051 l 0,5.7 -2.431,0 0,-11.441 1.903,0 0.341,1.5 0.124,0 c 0.345,-0.544 0.835,-0.965 1.469,-1.262 0.635,-0.296 1.338,-0.444 2.11,-0.444 2.745,0 4.117,1.396 4.117,4.189 l 0,7.458 z" /></g><g
     id="g195"><path
       style="fill:#e6e6e5"
       inkscape:connector-curvature="0"
       id="path197"
       d="m 55.729,143.313 6.922,0 0,8.644 c -1.879,0.644 -3.945,0.966 -6.198,0.966 -2.472,0 -4.382,-0.717 -5.731,-2.15 -1.349,-1.433 -2.024,-3.478 -2.024,-6.132 0,-2.589 0.739,-4.604 2.216,-6.044 1.477,-1.44 3.547,-2.161 6.208,-2.161 1.009,0 1.962,0.096 2.858,0.285 0.896,0.19 1.676,0.432 2.342,0.725 l -1.371,3.4 c -1.156,-0.57 -2.424,-0.855 -3.807,-0.855 -1.265,0 -2.243,0.411 -2.934,1.233 -0.691,0.823 -1.037,1.998 -1.037,3.526 0,1.5 0.313,2.643 0.938,3.429 0.625,0.786 1.526,1.179 2.704,1.179 0.644,0 1.236,-0.062 1.777,-0.187 l 0,-2.512 -2.863,0 0,-3.346 z" /><path
       style="fill:#e6e6e5"
       inkscape:connector-curvature="0"
       id="path199"
       d="m 78.185,144.345 c 0,2.677 -0.737,4.738 -2.21,6.187 -1.473,1.449 -3.545,2.172 -6.214,2.172 l -5.188,0 0,-16.037 5.551,0 c 2.574,0 4.561,0.658 5.961,1.975 1.4,1.317 2.1,3.216 2.1,5.703 z m -4.497,0.153 c 0,-1.47 -0.291,-2.56 -0.872,-3.269 -0.581,-0.709 -1.464,-1.064 -2.649,-1.064 l -1.262,0 0,8.984 0.965,0 c 1.316,0 2.282,-0.383 2.896,-1.146 0.614,-0.765 0.922,-1.933 0.922,-3.505 z" /><path
       style="fill:#e6e6e5"
       inkscape:connector-curvature="0"
       id="path201"
       d="m 86.15,143.313 6.922,0 0,8.644 c -1.879,0.644 -3.945,0.966 -6.198,0.966 -2.472,0 -4.382,-0.717 -5.731,-2.15 -1.349,-1.433 -2.024,-3.478 -2.024,-6.132 0,-2.589 0.739,-4.604 2.216,-6.044 1.477,-1.44 3.547,-2.161 6.208,-2.161 1.009,0 1.962,0.096 2.858,0.285 0.896,0.19 1.676,0.432 2.342,0.725 l -1.371,3.4 c -1.156,-0.57 -2.424,-0.855 -3.807,-0.855 -1.265,0 -2.243,0.411 -2.934,1.233 -0.691,0.823 -1.037,1.998 -1.037,3.526 0,1.5 0.313,2.643 0.938,3.429 0.625,0.786 1.526,1.179 2.704,1.179 0.644,0 1.236,-0.062 1.777,-0.187 l 0,-2.512 -2.863,0 0,-3.346 z" /></g><path
     inkscape:connector-curvature="0"
     style="fill:url(#SVGID_9_)"
     id="path208"
     d="m 9.068,187 6.791,0 c 1.607,0 3.604,-1.128 4.432,-2.511 l 5.72,-9.519 c 0.677,-1.396 0.653,-3.426 -0.119,-4.713 L 22.514,164.665 9.068,187 Z" /><path
     inkscape:connector-curvature="0"
     style="fill:url(#SVGID_10_)"
     id="path215"
     d="M 16.368,159.514 1.266,184.763 C 0.683,186.011 1.289,187 2.787,187 l 6.281,0 13.446,-22.335 -6.146,-10.173 c 0.829,1.378 0.829,3.638 0,5.022" /><path
     inkscape:connector-curvature="0"
     style="fill:url(#SVGID_11_)"
     id="path222"
     d="m 2.787,127 c -1.613,0 -2.254,1.133 -1.424,2.511 l 24.529,40.745 c 0.772,1.288 0.795,3.317 0.119,4.713 L 31.974,165.044 9.072,127 2.787,127 Z" /><path
     inkscape:connector-curvature="0"
     style="fill:url(#SVGID_12_)"
     id="path229"
     d="m 9.072,127 22.903,38.045 3.321,-5.53 c 0.83,-1.385 0.83,-3.645 0,-5.023 L 20.292,129.511 C 19.463,128.133 17.467,127 15.86,127 l -6.788,0 z" /></svg>